<?xml version="1.0" encoding="utf-8"?>
<!-- Generator: Adobe Illustrator 28.0.0, SVG Export Plug-In . SVG Version: 6.00 Build 0)  -->
<svg version="1.1" id="Layer_1" xmlns="http://www.w3.org/2000/svg" xmlns:xlink="http://www.w3.org/1999/xlink" x="0px" y="0px"
	 viewBox="0 0 1749.4 638.1" style="enable-background:new 0 0 1749.4 638.1;" xml:space="preserve">
<style type="text/css">
	.st0{fill:#4286F5;}
	.st1{fill:#FBBC06;}
	.st2{fill:#EA4335;}
	.st3{fill:#34A853;}
</style>
<path class="st0" d="M256.2,269.8c0-8.5,0-17,0-25.4c0-2.2,0.2-3.8,3.2-3.8c16.9,0.2,33.9,0.3,50.8,0.3c43.1,0.1,86.2,0.1,129.3,0.1
	c2.5,0,5,0.1,7.4-0.3c3.3-0.5,5.1,0.8,5.4,3.9c0.8,7.6,1.9,15.2,2.1,22.8c0.4,15.9,0,31.6-2.7,47.5c-2.2,12.7-5.2,25.1-9.3,37.2
	c-4.5,13.3-10.7,25.8-18.7,37.4c-18.6,26.9-42.6,48-71.6,63c-10.8,5.6-22.2,10-34.2,12.7c-6.1,1.4-12,3.6-18.1,4.5
	c-10.3,1.5-20.8,2.6-31.2,3.2c-16.1,0.9-32.3,0.2-48.2-2.3c-8.8-1.4-17.5-3.7-26-6.3c-17.5-5.3-34.1-12.8-49.7-22.3
	c-21.3-12.9-40-28.8-55.8-48.2c-11.5-14.1-21.6-29.1-29.1-45.7C52.7,332.3,47.1,316,44,298.9c-2.7-14.9-4.6-29.8-3.7-44.9
	c1.1-18.6,3.9-36.9,9.5-54.8c6.5-20.7,15.8-40,28.2-57.7c9.7-13.8,20.6-26.6,33.4-37.7c12.6-11.1,25.9-21,40.7-29
	c12.9-6.9,26.1-12.9,40.1-17.1c15.1-4.5,30.5-7.4,46.2-9c17-1.7,33.7-0.5,50.3,1.4c12.8,1.5,25.5,5.6,37.9,9.5
	c17.7,5.5,33.8,14.3,48.7,25.2c8.4,6.2,16.4,13,24.5,19.6c2.1,1.6,1.9,3,0,4.9c-12.1,12-24.2,24-36.2,36.2c-2.1,2.1-3.5,2.2-5.6,0.2
	c-16.7-15.7-36-26.8-58-33.1c-20.9-6-42.1-6.9-63.7-4.4c-29.8,3.4-55.9,15.1-78.6,34.3C145.4,152.9,135,165,126.8,179
	c-6.9,11.7-12.9,23.9-16.4,37c-5.6,20.9-8.1,42.1-5,63.9c2.5,17.7,7.3,34.3,15,50.4c8.9,18.5,21.2,34,36.5,47.5
	c14.6,12.8,31.2,22,49.4,28.5c21.5,7.7,43.7,8.9,66.1,7.4c27.3-1.8,52.5-10.7,74.3-27.4c16.6-12.7,30.7-27.7,37.9-47.7
	c3.3-9.1,5.2-18.7,7.7-28.1c0.6-2.4,1.1-4.8,1.7-7.2c0.5-2.2-0.2-3.4-2.6-3.4c-39.4,0.1-78.9,0.1-118.3,0.2c-4.2,0-8.5-0.1-12.7,0
	c-3.2,0.1-4.4-1.2-4.3-4.4C256.3,286.9,256.2,278.4,256.2,269.8z"/>
<path class="st0" d="M1334.1,341.7c0,41.2,0.3,82.4-0.1,123.6c-0.2,18.6-4.5,36.5-10.9,54c-5.6,15.2-13.9,28.5-24.9,40.2
	c-10.9,11.5-23.7,20.4-38.6,25.9c-8.6,3.2-17.3,6.6-26.2,8c-13.9,2.3-27.9,3.9-42.2,2.2c-11.4-1.4-22.7-3.1-33.3-7.5
	c-9.8-4.1-19.4-9.2-28.3-14.9c-18-11.7-31.4-27.9-41.8-46.6c-1.4-2.6-2.7-5.2-4.2-7.8c-1.5-2.7-1.2-4.7,1.9-5.9
	c5.8-2.3,11.6-4.6,17.3-7c8.8-3.7,17.6-7.3,26.2-11.2c5.1-2.3,5.7-2.1,8.2,2.9c8,15.9,19.3,28.7,35.5,36.6c16.2,8,33.3,8.9,50.8,5
	c15.3-3.4,28-10.9,37.4-23.4c8-10.6,12.8-22.5,13.7-35.7c0.8-11.1,1.1-22.3,1.4-33.5c0-1.2-0.6-2.4-0.9-3.5c-1,0.6-2.3,1.1-3.1,1.9
	c-9.9,10.6-22.1,17.6-35.6,22.6c-14.6,5.4-29.7,6-44.9,5.1c-10.3-0.7-20.3-3.3-30.2-6.8c-12-4.3-22.9-10.3-33.1-17.8
	c-14.1-10.5-26-23-35.6-37.8c-8.1-12.5-13.9-26-17.4-40.3c-4.7-19.5-5.7-39.1-1.6-59.1c2.8-13.1,6.4-25.9,12.7-37.5
	c5.3-9.7,11.7-19,18.8-27.6c13.1-16.1,29.6-28.2,48.6-36.6c18.3-8.1,37.6-10.8,57.5-9.5c23.6,1.6,44,10.2,60.7,27.2
	c0.8,0.8,2.2,1,3.3,1.4c0.3-1.2,0.8-2.4,0.8-3.6c0-4.6-0.1-9.2-0.2-13.8c0-3.2,2-3.9,4.7-3.9c13.4,0.1,26.8,0.1,40.3,0.1
	c3.1,0,6.1-0.1,9.2-0.3c2.4-0.2,3.6,0.9,3.8,3.1c0.2,2.3,0.2,4.7,0.2,7.1C1334.2,258.6,1334.1,300.1,1334.1,341.7L1334.1,341.7z
	 M1280.6,338c-0.1-18-3.7-33.6-11.9-48.1c-8.8-15.7-21.5-26.9-38.7-32.7c-15.6-5.2-31.2-4.9-46.7,0.6c-13.8,4.9-25.1,13.1-33.9,24.9
	c-13.6,18.3-18.3,38.9-16.8,61.5c1.1,16.7,6.5,31.6,16.4,45c7.8,10.4,17.7,18.1,29.5,23.3c10.4,4.7,21.4,6,32.6,5.6
	c4.2-0.2,8.6,0,12.6-1.2c12-3.4,23.1-8.8,32-17.8C1273.2,381.9,1280.2,360.5,1280.6,338z"/>
<path class="st1" d="M908.4,472.9c-13.3,0.8-27.6-1.5-41.4-6.2c-37.8-12.8-66.1-36.7-82.7-73.5c-10.9-24.2-14.1-49.4-10.8-75.8
	c3-23.3,11.2-44.4,25-63.2c11.1-15.1,24.8-27.7,41.3-36.9c18.5-10.3,38.2-16.7,59.6-17.6c14.3-0.6,28.6-0.6,42.5,2.8
	c10.3,2.5,20.4,6.4,30.1,10.8c23.3,10.7,41.4,27.7,54.9,49.3c17.5,28,23.5,58.6,19.5,91.3c-4.4,36.2-21,65.8-49,88.9
	c-14.4,11.8-30.9,20-48.9,25.1C935.8,471.5,922.9,473.2,908.4,472.9z M987.3,336.6c-1-7.3-1.7-14.7-3.1-21.9
	c-2.8-14.9-10-27.7-20.5-38.4c-11.1-11.5-24.8-18.6-40.8-21.5c-17.9-3.2-34.4-0.1-50,8.5c-16.7,9.2-27.9,23.1-34.3,41
	c-8.2,22.9-8.3,46.1,1.9,68.1c12.1,26,32.1,42.7,61.8,45.5c17.3,1.7,33.6-1.4,48-11.3C974.8,389.8,986.5,366.2,987.3,336.6z"/>
<path class="st2" d="M610.1,199.4c76.9-0.9,137.4,60.4,137,137.5c-0.3,76.3-61.4,137.2-138.9,136.3c-74.5-0.8-135.7-58.9-135.7-137
	C472.4,258.2,533.3,198.4,610.1,199.4z M533.4,336c-0.5,17.1,3.5,33.5,13.3,47.8c13.4,19.6,31.4,32.3,56,34.2
	c17.1,1.3,33.1-1.7,47.3-11.4c14.5-9.8,24.9-22.9,30.9-39.6c5.2-14.6,6.6-29.5,4.5-44.5c-2.3-16.2-8.6-30.9-19.6-43.5
	c-9.8-11.3-22-18.9-36.2-22.8c-15.8-4.3-31.5-3.5-47,2.5c-16.1,6.2-28.4,16.7-37.1,31.1C537,303.8,533,319.2,533.4,336z"/>
<path class="st2" d="M1592.7,473.1c-39.4-0.3-73-14.3-100-43.1c-12.7-13.5-21.7-29.4-27.9-47c-7.6-21.8-9.7-44.2-6.7-66.8
	c3.5-26.5,13.2-50.5,30.3-71.5c11.6-14.2,25.7-25.1,42.2-32.9c7.8-3.7,16-6.9,24.4-9.1c12-3.1,24.4-3.4,36.8-3.3
	c14.9,0.2,29.2,3.3,42.7,9.4c15,6.7,28.1,16.3,39.1,28.5c14,15.5,24.6,33.2,31.7,53c1.1,3,2.5,5.8,3.9,8.7c1.1,2.1,0.7,3.2-1.5,4.1
	c-13.9,5.7-27.8,11.5-41.7,17.2c-11.4,4.7-22.7,9.6-34.1,14.3c-10.5,4.3-21.2,8.4-31.7,12.8c-13.4,5.6-26.8,11.5-40.2,17.1
	c-7.4,3.1-14.8,5.9-22.2,8.9c-2.8,1.1-5.7,2.1-8.4,3.6c-0.7,0.4-1.3,2.6-0.9,3.3c9.3,15.7,21.1,28.3,39,34.4
	c14.2,4.8,28.7,4.9,42.9,2.2c18.5-3.6,33.4-14.1,44.8-29.3c5.2-7.1,3.7-8,12.2-2.2c12,8.3,24.3,16.2,36.4,24.2c3.7,2.5,3.6,3,1,6.5
	c-10.2,13.9-22.4,25.7-36.9,35.1c-11.4,7.4-23.5,13-36.6,16.9C1618.7,471.7,1605.8,473.2,1592.7,473.1z M1589.2,253.4
	c-3.9,0-7.8-0.4-11.6,0.1c-3.7,0.5-7.4,1.5-10.9,2.9c-13.6,5.4-25.3,13.4-34.2,25.2c-10.2,13.6-14.5,29.1-15.4,45.7
	c-0.2,3,1.1,3.5,3.6,2.5c10.9-4.4,21.8-8.6,32.7-13.1c17.8-7.4,35.5-14.9,53.2-22.4c9.7-4.1,19.4-8.4,29.1-12.5
	c2.3-1,3.1-2.2,1.4-4.2c-3.5-4.3-6.7-9.2-10.9-12.7C1615.6,256.1,1603,252.5,1589.2,253.4z"/>
<path class="st3" d="M1431.1,264.2c0,27.9,0,55.8,0,83.7c0,33.8,0.1,67.5,0.2,101.3c0,3.9,0,7.8,0.1,11.6c0.1,2.8-1.1,4.1-4,4.1
	c-17.8,0-35.5,0-53.3-0.1c-4.2,0-4.8-0.9-4.6-5.2c0.2-3.4,0-6.8,0-10.2c0-79.4,0-158.9,0-238.3c0-36.7,0-73.4,0-110.1
	c0-10.8,0-21.6,0-32.5c0-4,0.7-4.8,5.1-4.8c8.5,0,16.9,0.1,25.4,0.1c8.8,0,17.7-0.1,26.5-0.2c4.1,0,4.9,0.9,4.8,5
	c-0.2,6.6-0.2,13.2-0.1,19.8c0.1,29.2,0.2,58.4,0.2,87.6c0,29.4,0,58.8,0,88.3C1431.3,264.2,1431.2,264.2,1431.1,264.2z"/>
</svg>
